# xmcd CD database file
#
# Track frame offsets:
#	150
#	47283
#	109870
#	144697
#	184270
#	223907
#	238936
#	252787
#	267143
#	280406
#	292230
#	303023
#	317432
#	329026
#
# Disc length: 4560 seconds
#
# Revision: 0
# Processed by: cddbd v1.5.2PL0 Copyright (c) Steve Scherf et al.
# Submitted via: CDex 1.83
#
DISCID=dd11ce0e
DTITLE=Gene Krupa - Swingin' With Krupa
DYEAR=1958
DGENRE=Jazz
TTITLE0=Buddy's Blues
TTITLE1=Bernie's Tune
TTITLE2=Gene's Blues
TTITLE3=Sweethearts In Paradise
TTITLE4=I Never Knew
TTITLE5=Ain't Misbehavin'
TTITLE6=Handful Of Keys
TTITLE7=Honeysuckle Rose
TTITLE8=What Did I Do To Be So Black and Blue
TTITLE9=Walking With The Blues
TTITLE10=Panhandle Rag
TTITLE11=Bonaparte's Retreat
TTITLE12=I'm Forever Blowing Bubbles
TTITLE13=Swing Is Here
EXTD=YEAR: 1958
EXTT0=
EXTT1=
EXTT2=
EXTT3=
EXTT4=
EXTT5=
EXTT6=
EXTT7=
EXTT8=
EXTT9=
EXTT10=
EXTT11=
EXTT12=
EXTT13=
PLAYORDER=
